<svg width="20" height="20" viewBox="0 0 20 20" fill="none" xmlns="http://www.w3.org/2000/svg">
<path d="M8.80511 11.5C8.82842 11.5293 8.85347 11.5571 8.88011 11.5833C9.17857 11.8815 9.58321 12.0491 10.0051 12.0491C10.427 12.0491 10.8317 11.8815 11.1301 11.5833C11.1568 11.5571 11.1818 11.5293 11.2051 11.5L17.0043 3.71918C17.0922 3.6009 17.1455 3.46052 17.1582 3.31371C17.1709 3.1669 17.1426 3.01945 17.0764 2.8878C17.0102 2.75615 16.9087 2.6455 16.7832 2.56819C16.6578 2.49089 16.5133 2.44997 16.3659 2.45001H3.64678C3.49942 2.44997 3.35495 2.49089 3.2295 2.56819C3.10404 2.6455 3.00255 2.75615 2.93633 2.8878C2.87012 3.01945 2.8418 3.1669 2.85454 3.31371C2.86727 3.46052 2.92056 3.6009 3.00845 3.71918L8.80511 11.5Z" fill="#2A2B8D"/>
<path d="M18.7436 15.1667H1.25864C0.947931 15.1749 0.652713 15.3041 0.43586 15.5268C0.219006 15.7494 0.0976562 16.048 0.0976562 16.3588C0.0976562 16.6696 0.219006 16.9681 0.43586 17.1908C0.652713 17.4134 0.947931 17.5426 1.25864 17.5509H18.7436C19.0543 17.5426 19.3496 17.4134 19.5664 17.1908C19.7833 16.9681 19.9046 16.6696 19.9046 16.3588C19.9046 16.048 19.7833 15.7494 19.5664 15.5268C19.3496 15.3041 19.0543 15.1749 18.7436 15.1667Z" fill="#2A2B8D"/>
</svg>
